<?xml version="1.0" encoding="UTF-8"?>
<!DOCTYPE svg PUBLIC "-//W3C//DTD SVG 1.1//EN" "http://www.w3.org/Graphics/SVG/1.1/DTD/svg11.dtd">
<svg xmlns="http://www.w3.org/2000/svg" version="1.1" width="512px" height="512px"
  style="shape-rendering:geometricPrecision; text-rendering:geometricPrecision; image-rendering:optimizeQuality; fill-rule:evenodd; clip-rule:evenodd"
  xmlns:xlink="http://www.w3.org/1999/xlink">
  <g>
    <path style="opacity:0.997" fill="#fd6032"
      d="M 232.5,-0.5 C 247.833,-0.5 263.167,-0.5 278.5,-0.5C 282.021,0.306901 285.688,0.973568 289.5,1.5C 193.833,97.8333 97.8333,193.833 1.5,289.5C 0.973568,285.688 0.306901,282.021 -0.5,278.5C -0.5,263.167 -0.5,247.833 -0.5,232.5C 10.3875,142.857 54.7208,75.3573 132.5,30C 163.971,13.3053 197.304,3.1386 232.5,-0.5 Z" />
  </g>
  <g>
    <path style="opacity:0.998" fill="#fb5a33"
      d="M 289.5,1.5 C 324.652,5.88318 357.319,17.2165 387.5,35.5C 353.117,70.8832 318.117,105.55 282.5,139.5C 278.833,136.167 275.167,132.833 271.5,129.5C 263.614,119.409 254.281,117.909 243.5,125C 241.877,127.08 240.377,129.246 239,131.5C 238.667,139.833 238.333,148.167 238,156.5C 230.873,158.813 224.04,161.813 217.5,165.5C 211.119,158.452 204.452,151.785 197.5,145.5C 192.001,138.643 185.668,137.81 178.5,143C 153.56,166.814 141.727,195.981 143,230.5C 144.864,234.686 148.03,237.353 152.5,238.5C 157.5,243.833 162.5,249.167 167.5,254.5C 124.584,298.916 81.0845,342.916 37,386.5C 36.5357,387.094 36.369,387.761 36.5,388.5C 17.5179,358.228 5.85122,325.228 1.5,289.5C 97.8333,193.833 193.833,97.8333 289.5,1.5 Z" />
  </g>
  <g>
    <path style="opacity:0.998" fill="#fa5534"
      d="M 387.5,35.5 C 405.875,45.8679 422.208,58.8679 436.5,74.5C 408.167,103.5 379.5,132.167 350.5,160.5C 348.754,158.748 346.754,157.415 344.5,156.5C 339.923,149.423 333.923,143.923 326.5,140C 315.847,139.655 311.013,144.821 312,155.5C 312.667,156.833 313.333,158.167 314,159.5C 325.414,169.34 333.581,181.34 338.5,195.5C 337.833,195.167 337.167,194.833 336.5,194.5C 318.5,176.167 300.5,157.833 282.5,139.5C 318.117,105.55 353.117,70.8832 387.5,35.5 Z" />
  </g>
  <g>
    <path style="opacity:0.998" fill="#f85233"
      d="M 436.5,74.5 C 444.246,80.91 450.913,88.2434 456.5,96.5C 456.631,97.2389 456.464,97.9056 456,98.5C 427.965,126.368 400.132,154.368 372.5,182.5C 364.833,175.5 357.5,168.167 350.5,160.5C 379.5,132.167 408.167,103.5 436.5,74.5 Z" />
  </g>
  <g>
    <path style="opacity:0.997" fill="#f74e34"
      d="M 456.5,96.5 C 481.699,127.576 498.366,162.909 506.5,202.5C 487.167,221.167 468.167,240.167 449.5,259.5C 442.167,252.5 434.833,245.5 427.5,238.5C 420.167,230.5 412.5,222.833 404.5,215.5C 393.833,204.5 383.167,193.5 372.5,182.5C 400.132,154.368 427.965,126.368 456,98.5C 456.464,97.9056 456.631,97.2389 456.5,96.5 Z" />
  </g>
  <g>
    <path style="opacity:1" fill="#fefefe"
      d="M 271.5,129.5 C 272.249,138.467 272.749,147.467 273,156.5C 299.683,164.683 317.183,182.016 325.5,208.5C 325.89,211.839 326.39,215.173 327,218.5C 327.333,240.833 327.667,263.167 328,285.5C 328.66,287.324 329.827,288.657 331.5,289.5C 338.699,299.241 346.366,308.574 354.5,317.5C 357.453,321.625 360.619,325.625 364,329.5C 368.209,337.902 367.043,345.402 360.5,352C 358.35,353.411 356.016,354.245 353.5,354.5C 334.164,354.333 314.83,354.5 295.5,355C 289.614,380.296 273.614,391.962 247.5,390C 244.721,389.439 242.054,388.606 239.5,387.5C 225.906,380.672 217.906,369.672 215.5,354.5C 195.164,354.667 174.831,354.5 154.5,354C 153.473,353.487 152.473,352.987 151.5,352.5C 144.943,347.798 142.776,341.464 145,333.5C 156.853,317.801 169.187,302.468 182,287.5C 183.41,281.621 183.91,275.621 183.5,269.5C 183.333,252.497 183.5,235.497 184,218.5C 187.631,195.869 198.798,178.202 217.5,165.5C 224.04,161.813 230.873,158.813 238,156.5C 238.333,148.167 238.667,139.833 239,131.5C 240.377,129.246 241.877,127.08 243.5,125C 254.281,117.909 263.614,119.409 271.5,129.5 Z" />
  </g>
  <g>
    <path style="opacity:1" fill="#fefcfb"
      d="M 197.5,145.5 C 200.117,150.187 199.95,154.853 197,159.5C 176.083,179.223 165.416,203.556 165,232.5C 161.991,236.893 157.825,238.893 152.5,238.5C 148.03,237.353 144.864,234.686 143,230.5C 141.727,195.981 153.56,166.814 178.5,143C 185.668,137.81 192.001,138.643 197.5,145.5 Z" />
  </g>
  <g>
    <path style="opacity:1" fill="#fefcfb"
      d="M 344.5,156.5 C 361.658,178.142 369.491,202.808 368,230.5C 364.88,237.974 359.38,240.474 351.5,238C 347.835,236.332 345.668,233.499 345,229.5C 345.025,217.626 342.858,206.293 338.5,195.5C 333.581,181.34 325.414,169.34 314,159.5C 313.333,158.167 312.667,156.833 312,155.5C 311.013,144.821 315.847,139.655 326.5,140C 333.923,143.923 339.923,149.423 344.5,156.5 Z" />
  </g>
  <g>
    <path style="opacity:1" fill="#c93f2e"
      d="M 271.5,129.5 C 275.167,132.833 278.833,136.167 282.5,139.5C 300.5,157.833 318.5,176.167 336.5,194.5C 333.037,198.464 329.37,202.298 325.5,206C 326.598,206.77 326.598,207.603 325.5,208.5C 317.183,182.016 299.683,164.683 273,156.5C 272.749,147.467 272.249,138.467 271.5,129.5 Z" />
  </g>
  <g>
    <path style="opacity:1" fill="#d6412f"
      d="M 344.5,156.5 C 346.754,157.415 348.754,158.748 350.5,160.5C 357.5,168.167 364.833,175.5 372.5,182.5C 383.167,193.5 393.833,204.5 404.5,215.5C 380.167,240.167 355.833,264.833 331.5,289.5C 329.827,288.657 328.66,287.324 328,285.5C 327.667,263.167 327.333,240.833 327,218.5C 326.39,215.173 325.89,211.839 325.5,208.5C 326.598,207.603 326.598,206.77 325.5,206C 329.37,202.298 333.037,198.464 336.5,194.5C 337.167,194.833 337.833,195.167 338.5,195.5C 342.858,206.293 345.025,217.626 345,229.5C 345.668,233.499 347.835,236.332 351.5,238C 359.38,240.474 364.88,237.974 368,230.5C 369.491,202.808 361.658,178.142 344.5,156.5 Z" />
  </g>
  <g>
    <path style="opacity:0.991" fill="#f54835"
      d="M 506.5,202.5 C 508.504,212.568 510.17,222.568 511.5,232.5C 511.5,247.833 511.5,263.167 511.5,278.5C 510.138,291.005 507.804,303.339 504.5,315.5C 501.86,312.194 498.86,309.194 495.5,306.5C 488.158,299.124 480.825,291.791 473.5,284.5C 466.833,277.167 459.833,270.167 452.5,263.5C 451.5,262.167 450.5,260.833 449.5,259.5C 468.167,240.167 487.167,221.167 506.5,202.5 Z" />
  </g>
  <g>
    <path style="opacity:1" fill="#dd4230"
      d="M 404.5,215.5 C 412.5,222.833 420.167,230.5 427.5,238.5C 403.419,264.082 378.753,289.249 353.5,314C 355.373,314.953 355.706,316.12 354.5,317.5C 346.366,308.574 338.699,299.241 331.5,289.5C 355.833,264.833 380.167,240.167 404.5,215.5 Z" />
  </g>
  <g>
    <path style="opacity:1" fill="#bc372a"
      d="M 197.5,145.5 C 204.452,151.785 211.119,158.452 217.5,165.5C 198.798,178.202 187.631,195.869 184,218.5C 183.5,235.497 183.333,252.497 183.5,269.5C 178.167,264.5 172.833,259.5 167.5,254.5C 162.5,249.167 157.5,243.833 152.5,238.5C 157.825,238.893 161.991,236.893 165,232.5C 165.416,203.556 176.083,179.223 197,159.5C 199.95,154.853 200.117,150.187 197.5,145.5 Z" />
  </g>
  <g>
    <path style="opacity:0.998" fill="#fa5534"
      d="M 167.5,254.5 C 172.833,259.5 178.167,264.5 183.5,269.5C 183.91,275.621 183.41,281.621 182,287.5C 169.187,302.468 156.853,317.801 145,333.5C 142.776,341.464 144.943,347.798 151.5,352.5C 152.211,354.03 153.211,355.363 154.5,356.5C 128.167,383.5 101.5,410.167 74.5,436.5C 59.1747,422.519 46.508,406.519 36.5,388.5C 36.369,387.761 36.5357,387.094 37,386.5C 81.0845,342.916 124.584,298.916 167.5,254.5 Z" />
  </g>
  <g>
    <path style="opacity:1" fill="#e44431"
      d="M 427.5,238.5 C 434.833,245.5 442.167,252.5 449.5,259.5C 450.5,260.833 451.5,262.167 452.5,263.5C 452.414,264.496 452.748,265.329 453.5,266C 388.917,331.084 323.917,395.584 258.5,459.5C 256.5,457.833 254.5,456.167 252.5,454.5C 250.5,452.167 248.5,449.833 246.5,447.5C 276.632,416.868 306.965,386.368 337.5,356C 343.016,355.827 348.349,355.327 353.5,354.5C 356.016,354.245 358.35,353.411 360.5,352C 367.043,345.402 368.209,337.902 364,329.5C 360.619,325.625 357.453,321.625 354.5,317.5C 355.706,316.12 355.373,314.953 353.5,314C 378.753,289.249 403.419,264.082 427.5,238.5 Z" />
  </g>
  <g>
    <path style="opacity:1" fill="#e94432"
      d="M 452.5,263.5 C 459.833,270.167 466.833,277.167 473.5,284.5C 473.631,285.239 473.464,285.906 473,286.5C 408.299,351.035 343.799,415.701 279.5,480.5C 272.167,473.833 265.167,466.833 258.5,459.5C 323.917,395.584 388.917,331.084 453.5,266C 452.748,265.329 452.414,264.496 452.5,263.5 Z" />
  </g>
  <g>
    <path style="opacity:1" fill="#ee4434"
      d="M 473.5,284.5 C 480.825,291.791 488.158,299.124 495.5,306.5C 494.761,306.369 494.094,306.536 493.5,307C 428.965,371.701 364.299,436.201 299.5,500.5C 298.317,499.496 296.984,498.662 295.5,498C 290.301,491.971 284.967,486.138 279.5,480.5C 343.799,415.701 408.299,351.035 473,286.5C 473.464,285.906 473.631,285.239 473.5,284.5 Z" />
  </g>
  <g>
    <path style="opacity:0.996" fill="#f34435"
      d="M 495.5,306.5 C 498.86,309.194 501.86,312.194 504.5,315.5C 484.14,395.364 436.807,453.198 362.5,489C 343.834,497.278 324.501,503.444 304.5,507.5C 303.164,504.846 301.497,502.513 299.5,500.5C 364.299,436.201 428.965,371.701 493.5,307C 494.094,306.536 494.761,306.369 495.5,306.5 Z" />
  </g>
  <g>
    <path style="opacity:1" fill="#e04432"
      d="M 353.5,354.5 C 348.349,355.327 343.016,355.827 337.5,356C 306.965,386.368 276.632,416.868 246.5,447.5C 233.833,435.5 221.5,423.167 209.5,410.5C 216.965,403.536 224.298,396.369 231.5,389C 232.744,388.544 233.577,389.044 234,390.5C 235.264,388.393 237.097,387.393 239.5,387.5C 242.054,388.606 244.721,389.439 247.5,390C 273.614,391.962 289.614,380.296 295.5,355C 314.83,354.5 334.164,354.333 353.5,354.5 Z" />
  </g>
  <g>
    <path style="opacity:0.997" fill="#f85233"
      d="M 154.5,356.5 C 161.833,363.167 168.833,370.167 175.5,377.5C 150.419,404.082 124.752,430.249 98.5,456C 97.9056,456.464 97.2389,456.631 96.5,456.5C 88.2434,450.913 80.91,444.246 74.5,436.5C 101.5,410.167 128.167,383.5 154.5,356.5 Z" />
  </g>
  <g>
    <path style="opacity:1" fill="#d54330"
      d="M 151.5,352.5 C 152.473,352.987 153.473,353.487 154.5,354C 174.831,354.5 195.164,354.667 215.5,354.5C 217.906,369.672 225.906,380.672 239.5,387.5C 237.097,387.393 235.264,388.393 234,390.5C 233.577,389.044 232.744,388.544 231.5,389C 224.298,396.369 216.965,403.536 209.5,410.5C 198.167,399.5 186.833,388.5 175.5,377.5C 168.833,370.167 161.833,363.167 154.5,356.5C 153.211,355.363 152.211,354.03 151.5,352.5 Z" />
  </g>
  <g>
    <path style="opacity:0.996" fill="#f74e34"
      d="M 175.5,377.5 C 186.833,388.5 198.167,399.5 209.5,410.5C 221.5,423.167 233.833,435.5 246.5,447.5C 248.5,449.833 250.5,452.167 252.5,454.5C 252.631,455.239 252.464,455.906 252,456.5C 235.298,473.035 218.798,489.701 202.5,506.5C 162.909,498.366 127.576,481.699 96.5,456.5C 97.2389,456.631 97.9056,456.464 98.5,456C 124.752,430.249 150.419,404.082 175.5,377.5 Z" />
  </g>
  <g>
    <path style="opacity:0.99" fill="#f54835"
      d="M 252.5,454.5 C 254.5,456.167 256.5,457.833 258.5,459.5C 265.167,466.833 272.167,473.833 279.5,480.5C 284.967,486.138 290.301,491.971 295.5,498C 296.984,498.662 298.317,499.496 299.5,500.5C 301.497,502.513 303.164,504.846 304.5,507.5C 295.703,508.846 287.037,510.179 278.5,511.5C 263.167,511.5 247.833,511.5 232.5,511.5C 222.568,510.17 212.568,508.504 202.5,506.5C 218.798,489.701 235.298,473.035 252,456.5C 252.464,455.906 252.631,455.239 252.5,454.5 Z" />
  </g>
</svg>
